<?xml version="1.0" encoding="utf-8"?>
<!-- Generator: Adobe Illustrator 16.2.1, SVG Export Plug-In . SVG Version: 6.00 Build 0)  -->
<!DOCTYPE svg PUBLIC "-//W3C//DTD SVG 1.1//EN" "http://www.w3.org/Graphics/SVG/1.1/DTD/svg11.dtd">
<svg version="1.1" id="Ebene_1" xmlns="http://www.w3.org/2000/svg" xmlns:xlink="http://www.w3.org/1999/xlink" x="0px" y="0px"
	 width="28.347px" height="28.347px" viewBox="0 0 28.347 28.347" enable-background="new 0 0 28.347 28.347" xml:space="preserve">
<path fill-rule="evenodd" clip-rule="evenodd" fill="#ECEDED" d="M0,0v28.348h28.347V0H0z M12.185,12.237l8.426-8.382l3.83,3.81
	l-8.426,8.382L12.185,12.237z M15.481,16.578l-5.362,1.524l1.531-5.335L15.481,16.578z M25.721,22.575
	c0,2.207-1.788,3.997-3.993,3.997H5.755c-2.205,0-3.992-1.79-3.992-3.997V6.587c0-2.208,1.787-3.998,3.992-3.998h12.788
	l-2.406,2.399H6.555c-1.324,0-2.396,1.073-2.396,2.397v14.389c0,1.324,1.071,2.398,2.396,2.398h14.374
	c1.323,0,2.396-1.074,2.396-2.398v-9.593l2.396-2.382V22.575z M26.173,5.941l-1.149,1.143l-3.83-3.81l1.149-1.143
	c0.423-0.421,1.088-0.442,1.483-0.047l2.395,2.381C26.617,4.859,26.597,5.52,26.173,5.941z"/>
</svg>
